<svg width="190" height="48" viewBox="0 0 190 48" fill="none" xmlns="http://www.w3.org/2000/svg">
<path d="M30.1553 24.4545C30.1553 27.6932 29.5255 30.4252 28.266 32.6506C27.0066 34.8665 25.3068 36.5473 23.1666 37.6932C21.0265 38.8295 18.6401 39.3977 16.0075 39.3977C13.356 39.3977 10.9602 38.8248 8.82003 37.679C6.68934 36.5237 4.99427 34.8381 3.7348 32.6222C2.4848 30.3968 1.8598 27.6742 1.8598 24.4545C1.8598 21.2159 2.4848 18.4886 3.7348 16.2727C4.99427 14.0473 6.68934 12.3665 8.82003 11.2301C10.9602 10.0843 13.356 9.51136 16.0075 9.51136C18.6401 9.51136 21.0265 10.0843 23.1666 11.2301C25.3068 12.3665 27.0066 14.0473 28.266 16.2727C29.5255 18.4886 30.1553 21.2159 30.1553 24.4545ZM22.0303 24.4545C22.0303 22.7121 21.7982 21.2443 21.3342 20.0511C20.8797 18.8485 20.2026 17.9394 19.303 17.3239C18.4128 16.6989 17.3143 16.3864 16.0075 16.3864C14.7007 16.3864 13.5975 16.6989 12.6979 17.3239C11.8077 17.9394 11.1306 18.8485 10.6666 20.0511C10.2121 21.2443 9.9848 22.7121 9.9848 24.4545C9.9848 26.197 10.2121 27.6695 10.6666 28.8722C11.1306 30.0653 11.8077 30.9744 12.6979 31.5994C13.5975 32.215 14.7007 32.5227 16.0075 32.5227C17.3143 32.5227 18.4128 32.215 19.303 31.5994C20.2026 30.9744 20.8797 30.0653 21.3342 28.8722C21.7982 27.6695 22.0303 26.197 22.0303 24.4545ZM39.1639 26.7273V39H31.323V9.90909H38.8798V21.3295H39.1071C39.5995 19.9375 40.4187 18.8532 41.5645 18.0767C42.7103 17.2907 44.0882 16.8977 45.698 16.8977C47.2416 16.8977 48.5815 17.2481 49.7179 17.9489C50.8637 18.6496 51.7491 19.6155 52.3741 20.8466C53.0086 22.0777 53.3211 23.4886 53.3116 25.0795V39H45.4707V26.7273C45.4802 25.6477 45.2103 24.8002 44.6611 24.1847C44.1213 23.5691 43.3495 23.2614 42.3457 23.2614C41.7113 23.2614 41.1526 23.4034 40.6696 23.6875C40.1961 23.9621 39.8268 24.3598 39.5616 24.8807C39.306 25.392 39.1734 26.0076 39.1639 26.7273ZM60.6619 39.3409C59.2699 39.3409 58.0388 39.1136 56.9687 38.6591C55.9081 38.1951 55.0748 37.4943 54.4687 36.5568C53.8627 35.6193 53.5597 34.4261 53.5597 32.9773C53.5597 31.7841 53.7633 30.7661 54.1705 29.9233C54.5776 29.071 55.1458 28.375 55.875 27.8352C56.6042 27.2955 57.4517 26.8835 58.4176 26.5994C59.393 26.3153 60.4441 26.1307 61.571 26.0455C62.7926 25.9508 63.7727 25.8371 64.5114 25.7045C65.2595 25.5625 65.7992 25.3684 66.1307 25.1222C66.4621 24.8665 66.6278 24.5303 66.6278 24.1136V24.0568C66.6278 23.4886 66.41 23.053 65.9744 22.75C65.5388 22.447 64.9801 22.2955 64.2983 22.2955C63.5502 22.2955 62.9394 22.4612 62.4659 22.7926C62.0019 23.1146 61.7225 23.6117 61.6278 24.2841H54.4119C54.5066 22.9583 54.928 21.7367 55.6761 20.6193C56.4337 19.4924 57.5369 18.5928 58.9858 17.9205C60.4347 17.2386 62.2434 16.8977 64.4119 16.8977C65.9744 16.8977 67.3759 17.0824 68.6165 17.4517C69.857 17.8116 70.9129 18.3182 71.7841 18.9716C72.6553 19.6155 73.3182 20.3731 73.7727 21.2443C74.2367 22.1061 74.4687 23.0436 74.4687 24.0568V39H67.1392V35.9318H66.9687C66.5331 36.7462 66.0028 37.4044 65.3778 37.9062C64.7623 38.4081 64.0568 38.7727 63.2614 39C62.4754 39.2273 61.6089 39.3409 60.6619 39.3409ZM63.2187 34.3977C63.8153 34.3977 64.374 34.2746 64.8949 34.0284C65.4252 33.7822 65.8561 33.4271 66.1875 32.9631C66.5189 32.4991 66.6847 31.9356 66.6847 31.2727V29.4545C66.4763 29.5398 66.2538 29.6203 66.017 29.696C65.7898 29.7718 65.5436 29.8428 65.2784 29.9091C65.0227 29.9754 64.7481 30.0369 64.4545 30.0938C64.1705 30.1506 63.8722 30.2027 63.5597 30.25C62.9536 30.3447 62.4564 30.5009 62.0682 30.7188C61.6894 30.9271 61.4053 31.1875 61.2159 31.5C61.036 31.803 60.946 32.1439 60.946 32.5227C60.946 33.1288 61.1591 33.5928 61.5852 33.9148C62.0114 34.2367 62.5559 34.3977 63.2187 34.3977ZM83.4561 26.7273V39H75.6152V17.1818H83.0584V21.3295H83.2856C83.7591 19.947 84.5925 18.8627 85.7856 18.0767C86.9883 17.2907 88.3898 16.8977 89.9902 16.8977C91.5338 16.8977 92.8737 17.2528 94.0101 17.9631C95.1559 18.6638 96.0413 19.6297 96.6663 20.8608C97.3008 22.0919 97.6133 23.4981 97.6038 25.0795V39H89.7629V26.7273C89.7724 25.6477 89.4978 24.8002 88.9391 24.1847C88.3898 23.5691 87.6228 23.2614 86.6379 23.2614C85.994 23.2614 85.4305 23.4034 84.9476 23.6875C84.4741 23.9621 84.1095 24.3598 83.8538 24.8807C83.5981 25.392 83.4656 26.0076 83.4561 26.7273ZM104.954 39.3409C103.562 39.3409 102.331 39.1136 101.261 38.6591C100.2 38.1951 99.367 37.4943 98.7609 36.5568C98.1549 35.6193 97.8518 34.4261 97.8518 32.9773C97.8518 31.7841 98.0554 30.7661 98.4626 29.9233C98.8698 29.071 99.438 28.375 100.167 27.8352C100.896 27.2955 101.744 26.8835 102.71 26.5994C103.685 26.3153 104.736 26.1307 105.863 26.0455C107.085 25.9508 108.065 25.8371 108.804 25.7045C109.552 25.5625 110.091 25.3684 110.423 25.1222C110.754 24.8665 110.92 24.5303 110.92 24.1136V24.0568C110.92 23.4886 110.702 23.053 110.267 22.75C109.831 22.447 109.272 22.2955 108.59 22.2955C107.842 22.2955 107.232 22.4612 106.758 22.7926C106.294 23.1146 106.015 23.6117 105.92 24.2841H98.7041C98.7988 22.9583 99.2202 21.7367 99.9683 20.6193C100.726 19.4924 101.829 18.5928 103.278 17.9205C104.727 17.2386 106.536 16.8977 108.704 16.8977C110.267 16.8977 111.668 17.0824 112.909 17.4517C114.149 17.8116 115.205 18.3182 116.076 18.9716C116.947 19.6155 117.61 20.3731 118.065 21.2443C118.529 22.1061 118.761 23.0436 118.761 24.0568V39H111.431V35.9318H111.261C110.825 36.7462 110.295 37.4044 109.67 37.9062C109.054 38.4081 108.349 38.7727 107.554 39C106.768 39.2273 105.901 39.3409 104.954 39.3409ZM107.511 34.3977C108.108 34.3977 108.666 34.2746 109.187 34.0284C109.717 33.7822 110.148 33.4271 110.48 32.9631C110.811 32.4991 110.977 31.9356 110.977 31.2727V29.4545C110.769 29.5398 110.546 29.6203 110.309 29.696C110.082 29.7718 109.836 29.8428 109.571 29.9091C109.315 29.9754 109.04 30.0369 108.747 30.0938C108.463 30.1506 108.164 30.2027 107.852 30.25C107.246 30.3447 106.749 30.5009 106.36 30.7188C105.982 30.9271 105.697 31.1875 105.508 31.5C105.328 31.803 105.238 32.1439 105.238 32.5227C105.238 33.1288 105.451 33.5928 105.877 33.9148C106.304 34.2367 106.848 34.3977 107.511 34.3977ZM125.162 39V9.90909H133.06V32.6364H144.822V39H125.162ZM145.528 39V17.1818H153.369V39H145.528ZM149.448 14.9091C148.388 14.9091 147.478 14.5587 146.721 13.858C145.963 13.1572 145.585 12.3144 145.585 11.3295C145.585 10.3447 145.963 9.50189 146.721 8.80114C147.478 8.10038 148.388 7.75 149.448 7.75C150.518 7.75 151.427 8.10038 152.175 8.80114C152.933 9.50189 153.312 10.3447 153.312 11.3295C153.312 12.3144 152.933 13.1572 152.175 13.858C151.427 14.5587 150.518 14.9091 149.448 14.9091ZM174.707 24.2841H167.491C167.453 23.839 167.297 23.4555 167.022 23.1335C166.748 22.8116 166.392 22.5653 165.957 22.3949C165.531 22.215 165.057 22.125 164.536 22.125C163.864 22.125 163.286 22.2481 162.803 22.4943C162.32 22.7405 162.084 23.0909 162.093 23.5455C162.084 23.8674 162.221 24.1657 162.505 24.4403C162.799 24.715 163.362 24.928 164.195 25.0795L168.627 25.875C170.862 26.2822 172.524 26.9687 173.613 27.9347C174.712 28.8911 175.266 30.1742 175.275 31.7841C175.266 33.3371 174.802 34.6866 173.883 35.8324C172.974 36.9687 171.729 37.8494 170.147 38.4744C168.575 39.09 166.781 39.3977 164.764 39.3977C161.43 39.3977 158.821 38.7159 156.937 37.3523C155.062 35.9886 154.016 34.1894 153.798 31.9545H161.582C161.686 32.6458 162.027 33.1809 162.605 33.5597C163.192 33.929 163.93 34.1136 164.82 34.1136C165.54 34.1136 166.132 33.9905 166.596 33.7443C167.07 33.4981 167.311 33.1477 167.32 32.6932C167.311 32.2765 167.103 31.9451 166.695 31.6989C166.298 31.4527 165.673 31.2538 164.82 31.1023L160.957 30.4205C158.731 30.0322 157.065 29.2936 155.957 28.2045C154.849 27.1155 154.3 25.714 154.309 24C154.3 22.4848 154.697 21.2017 155.502 20.1506C156.317 19.09 157.477 18.285 158.982 17.7358C160.498 17.1771 162.292 16.8977 164.366 16.8977C167.519 16.8977 170.005 17.5511 171.823 18.858C173.651 20.1648 174.612 21.9735 174.707 24.2841ZM188.691 17.1818V22.8636H174.316V17.1818H188.691ZM177.1 11.9545H184.941V31.983C184.941 32.286 184.993 32.5417 185.097 32.75C185.201 32.9489 185.362 33.1004 185.58 33.2045C185.798 33.2992 186.077 33.3466 186.418 33.3466C186.655 33.3466 186.929 33.3182 187.242 33.2614C187.564 33.2045 187.8 33.1572 187.952 33.1193L189.088 38.6307C188.738 38.7348 188.236 38.8627 187.583 39.0142C186.939 39.1657 186.172 39.2652 185.282 39.3125C183.482 39.4072 181.972 39.2225 180.75 38.7585C179.529 38.285 178.61 37.5417 177.995 36.5284C177.379 35.5152 177.081 34.2462 177.1 32.7216V11.9545Z" fill="url(#paint0_linear_12_482)"/>
<defs>
<linearGradient id="paint0_linear_12_482" x1="-1.21706e-08" y1="13" x2="183.81" y2="10.2835" gradientUnits="userSpaceOnUse">
<stop stop-color="#E9C347"/>
<stop offset="0.557292" stop-color="#D16F61"/>
<stop offset="1" stop-color="#B32694"/>
</linearGradient>
</defs>
</svg>
